<?xml version="1.0" encoding="utf-8"?>
<svg xmlns="http://www.w3.org/2000/svg" height="512pt" version="1.1" viewBox="0 0 512 512" width="512pt">
<path d="M 0.00 0.00 L 512.00 0.00 L 512.00 502.36 C 508.13 487.04 501.76 471.89 490.55 460.46 C 476.56 445.55 457.65 436.76 439.12 428.92 C 413.58 418.02 387.89 407.46 362.17 397.00 C 359.95 395.99 358.35 394.08 356.49 392.57 C 350.90 388.02 344.29 384.83 337.40 382.80 C 337.63 374.19 337.56 365.58 337.48 356.97 C 337.20 355.15 338.63 353.85 339.62 352.54 C 347.66 342.86 354.08 331.77 357.88 319.74 C 361.19 309.31 363.64 298.61 365.77 287.88 C 373.81 287.94 381.09 283.19 385.71 276.87 C 390.92 269.48 392.19 260.31 395.12 251.95 C 398.54 242.42 401.02 232.59 403.22 222.72 C 403.78 215.21 404.29 207.39 402.02 200.11 C 400.43 195.08 396.36 190.75 391.04 189.80 C 385.25 188.93 379.48 191.92 375.89 196.37 C 377.38 176.58 381.48 156.94 380.75 137.03 C 380.93 133.71 381.96 130.40 381.23 127.08 C 380.24 123.39 382.18 119.74 381.54 116.04 C 381.16 113.47 379.75 111.24 378.45 109.05 C 378.72 106.04 379.48 102.84 378.13 99.98 C 375.83 95.55 376.72 90.25 374.39 85.84 C 373.00 83.55 370.32 81.89 370.58 78.88 C 370.45 73.75 366.80 69.30 361.80 68.14 C 360.98 62.25 355.99 58.22 350.40 57.07 C 348.65 55.01 347.84 52.07 345.64 50.28 C 343.29 47.73 339.81 47.01 336.54 46.50 C 334.99 43.76 333.10 41.00 330.19 39.58 C 327.15 38.09 323.67 38.50 320.40 38.46 C 317.73 35.43 314.42 32.21 310.00 32.86 C 307.11 33.43 305.17 31.09 303.16 29.48 C 300.21 29.30 297.24 29.93 294.32 29.64 C 292.13 28.36 290.38 26.28 287.86 25.60 C 284.91 25.03 281.94 25.80 279.05 26.37 C 274.80 22.75 268.80 22.54 263.91 24.93 C 261.44 23.72 258.90 22.27 256.06 22.32 C 253.25 22.29 250.76 23.77 248.28 24.90 C 243.39 22.25 237.58 23.13 233.21 26.37 C 230.25 25.66 227.14 24.95 224.13 25.74 C 221.84 26.72 219.98 28.40 218.05 29.91 C 215.09 29.65 212.03 28.98 209.11 29.82 C 207.57 30.69 206.26 31.89 204.88 32.98 C 202.42 32.86 199.77 32.51 197.52 33.77 C 195.58 35.01 194.07 36.79 192.44 38.40 C 188.91 38.51 185.12 38.13 181.86 39.78 C 179.05 41.22 177.37 44.02 175.64 46.54 C 169.28 46.68 164.27 51.37 162.09 57.08 C 156.05 57.48 151.07 62.33 150.27 68.29 C 144.16 69.53 141.18 75.78 141.30 81.55 C 137.74 84.71 136.26 89.40 135.96 94.03 C 135.87 96.91 134.09 99.32 133.51 102.08 C 133.23 104.42 133.72 106.77 133.70 109.12 C 132.92 111.50 131.30 113.55 130.75 116.02 C 130.07 119.40 131.95 122.70 131.31 126.09 C 130.93 128.38 130.62 130.72 131.08 133.03 C 132.17 139.30 130.94 145.67 131.64 151.99 C 133.03 166.93 135.15 181.80 136.67 196.73 C 132.01 189.28 120.09 186.96 114.10 194.06 C 107.64 202.06 108.73 213.25 109.55 222.83 C 111.61 232.15 113.91 241.46 117.16 250.45 C 120.00 258.19 121.21 266.54 125.26 273.81 C 129.56 281.74 137.80 288.00 147.09 288.01 C 149.89 302.11 152.97 316.29 158.49 329.61 C 162.43 338.96 168.53 347.18 174.73 355.12 C 174.99 364.29 174.67 373.51 174.94 382.70 C 168.10 384.54 161.63 387.73 156.01 392.04 C 153.78 393.71 152.03 395.99 149.54 397.30 C 126.86 406.76 104.13 416.12 81.43 425.56 C 65.07 432.58 48.24 439.18 33.91 449.98 C 23.40 457.75 14.50 467.84 8.77 479.65 C 4.89 488.10 1.88 497.00 0.00 506.11 L 0.00 0.00 Z" fill="#fcf9f3" opacity="1.00" stroke="#fcf9f3" stroke-width="0.25"/>
<path d="M 248.28 24.90 C 250.76 23.77 253.25 22.29 256.06 22.32 C 258.90 22.27 261.44 23.72 263.91 24.93 C 268.80 22.54 274.80 22.75 279.05 26.37 C 281.94 25.80 284.91 25.03 287.86 25.60 C 290.38 26.28 292.13 28.36 294.32 29.64 C 297.24 29.93 300.21 29.30 303.16 29.48 C 305.17 31.09 307.11 33.43 310.00 32.86 C 314.42 32.21 317.73 35.43 320.40 38.46 C 323.67 38.50 327.15 38.09 330.19 39.58 C 333.10 41.00 334.99 43.76 336.54 46.50 C 339.81 47.01 343.29 47.73 345.64 50.28 C 347.84 52.07 348.65 55.01 350.40 57.07 C 355.99 58.22 360.98 62.25 361.80 68.14 C 366.80 69.30 370.45 73.75 370.58 78.88 C 370.32 81.89 373.00 83.55 374.39 85.84 C 376.72 90.25 375.83 95.55 378.13 99.98 C 379.48 102.84 378.72 106.04 378.45 109.05 C 379.75 111.24 381.16 113.47 381.54 116.04 C 382.18 119.74 380.24 123.39 381.23 127.08 C 381.96 130.40 380.93 133.71 380.75 137.03 C 381.48 156.94 377.38 176.58 375.89 196.37 C 379.48 191.92 385.25 188.93 391.04 189.80 C 396.36 190.75 400.43 195.08 402.02 200.11 C 404.29 207.39 403.78 215.21 403.22 222.72 C 401.02 232.59 398.54 242.42 395.12 251.95 C 392.19 260.31 390.92 269.48 385.71 276.87 C 381.09 283.19 373.81 287.94 365.77 287.88 C 363.64 298.61 361.19 309.31 357.88 319.74 C 354.08 331.77 347.66 342.86 339.62 352.54 C 338.63 353.85 337.20 355.15 337.48 356.97 C 337.56 365.58 337.63 374.19 337.40 382.80 C 344.29 384.83 350.90 388.02 356.49 392.57 C 358.35 394.08 359.95 395.99 362.17 397.00 C 387.89 407.46 413.58 418.02 439.12 428.92 C 457.65 436.76 476.56 445.55 490.55 460.46 C 501.76 471.89 508.13 487.04 512.00 502.36 L 512.00 512.00 L 0.00 512.00 L 0.00 506.11 C 1.88 497.00 4.89 488.10 8.77 479.65 C 14.50 467.84 23.40 457.75 33.91 449.98 C 48.24 439.18 65.07 432.58 81.43 425.56 C 104.13 416.12 126.86 406.76 149.54 397.30 C 152.03 395.99 153.78 393.71 156.01 392.04 C 161.63 387.73 168.10 384.54 174.94 382.70 C 174.67 373.51 174.99 364.29 174.73 355.12 C 168.53 347.18 162.43 338.96 158.49 329.61 C 152.97 316.29 149.89 302.11 147.09 288.01 C 137.80 288.00 129.56 281.74 125.26 273.81 C 121.21 266.54 120.00 258.19 117.16 250.45 C 113.91 241.46 111.61 232.15 109.55 222.83 C 108.73 213.25 107.64 202.06 114.10 194.06 C 120.09 186.96 132.01 189.28 136.67 196.73 C 135.15 181.80 133.03 166.93 131.64 151.99 C 130.94 145.67 132.17 139.30 131.08 133.03 C 130.62 130.72 130.93 128.38 131.31 126.09 C 131.95 122.70 130.07 119.40 130.75 116.02 C 131.30 113.55 132.92 111.50 133.70 109.12 C 133.72 106.77 133.23 104.42 133.51 102.08 C 134.09 99.32 135.87 96.91 135.96 94.03 C 136.26 89.40 137.74 84.71 141.30 81.55 C 141.18 75.78 144.16 69.53 150.27 68.29 C 151.07 62.33 156.05 57.48 162.09 57.08 C 164.27 51.37 169.28 46.68 175.64 46.54 C 177.37 44.02 179.05 41.22 181.86 39.78 C 185.12 38.13 188.91 38.51 192.44 38.40 C 194.07 36.79 195.58 35.01 197.52 33.77 C 199.77 32.51 202.42 32.86 204.88 32.98 C 206.26 31.89 207.57 30.69 209.11 29.82 C 212.03 28.98 215.09 29.65 218.05 29.91 C 219.98 28.40 221.84 26.72 224.13 25.74 C 227.14 24.95 230.25 25.66 233.21 26.37 C 237.58 23.13 243.39 22.25 248.28 24.90 Z" fill="#1b1516" opacity="1.00" stroke="#1b1516" stroke-width="0.25"/>
<path d="M 232.26 81.35 C 239.80 80.88 247.58 79.93 254.98 81.99 C 258.02 83.09 260.98 81.10 264.03 80.94 C 270.69 80.34 277.35 81.32 284.01 81.65 C 301.19 82.53 318.45 86.85 333.33 95.66 C 340.76 100.34 347.40 106.87 350.70 115.14 C 353.17 120.84 353.98 127.08 356.17 132.89 C 360.36 144.32 364.85 155.83 365.97 168.06 C 368.29 182.60 368.25 197.36 368.31 212.05 C 368.57 229.78 367.60 247.61 364.11 265.03 C 360.85 278.32 357.31 291.55 354.75 305.00 C 353.73 309.86 352.78 314.75 351.36 319.51 C 346.17 332.16 339.64 344.35 331.11 355.07 C 322.43 366.64 311.87 376.60 301.26 386.35 C 297.67 389.79 293.93 393.13 289.71 395.79 C 279.15 401.56 266.85 403.09 254.97 402.77 C 244.74 403.11 234.53 400.75 225.17 396.69 C 218.50 393.43 213.46 387.81 207.93 383.03 C 202.08 377.24 196.07 371.61 190.38 365.67 C 178.15 351.89 167.16 336.53 161.34 318.88 C 157.79 304.85 155.71 290.48 151.57 276.59 C 146.54 259.86 145.29 242.34 144.63 224.98 C 144.41 195.92 143.61 165.85 154.38 138.31 C 158.70 128.31 159.03 116.66 165.67 107.70 C 171.74 99.21 180.79 93.36 190.40 89.60 C 203.69 84.23 218.04 82.26 232.26 81.35 Z" fill="#934625" opacity="1.00" stroke="#934625" stroke-width="0.25"/>
<path d="M 162.11 186.13 C 168.90 174.79 182.32 169.73 194.90 168.51 C 201.85 168.35 209.14 167.66 215.68 170.56 C 221.65 173.79 226.74 178.83 229.21 185.25 C 219.31 185.83 209.24 185.87 199.52 183.66 C 195.19 182.10 190.54 182.33 186.02 182.28 C 179.60 182.14 173.94 185.56 168.42 188.37 C 163.40 190.84 160.60 195.94 157.08 200.03 C 156.67 194.93 159.80 190.44 162.11 186.13 Z" fill="#1b1516" opacity="1.00" stroke="#1b1516" stroke-width="0.25"/>
<path d="M 302.90 168.74 C 317.20 167.19 332.88 169.07 344.35 178.48 C 347.54 181.12 350.40 184.32 351.87 188.25 C 353.30 192.26 355.97 195.76 356.82 199.98 C 355.73 199.58 354.75 198.94 354.12 197.96 C 351.22 194.23 348.33 190.25 344.14 187.90 C 334.99 183.04 324.19 180.81 313.97 183.10 C 304.05 185.40 293.79 186.02 283.64 185.26 C 287.29 177.40 294.26 170.62 302.90 168.74 Z" fill="#1b1516" opacity="1.00" stroke="#1b1516" stroke-width="0.25"/>
<path d="M 181.09 196.94 C 189.00 194.20 197.86 193.12 205.88 196.02 C 213.64 198.62 222.22 202.76 225.10 211.05 C 226.00 212.67 225.42 214.43 224.63 215.94 C 221.17 207.08 212.35 202.08 203.80 199.11 C 196.76 196.63 189.13 198.22 182.26 200.49 C 176.35 202.61 171.83 207.21 168.04 212.04 C 166.87 213.89 166.15 210.68 166.93 209.93 C 168.84 203.32 174.98 199.23 181.09 196.94 Z" fill="#1b1516" opacity="1.00" stroke="#1b1516" stroke-width="0.25"/>
<path d="M 300.94 196.91 C 308.54 193.86 316.98 193.73 324.99 194.81 C 333.62 196.21 342.91 201.14 345.36 210.14 C 345.20 210.59 344.88 211.49 344.71 211.94 C 340.16 206.16 334.57 200.39 327.09 198.79 C 316.97 196.03 305.71 197.84 297.31 204.22 C 293.12 206.93 289.45 210.42 287.34 215.00 C 286.28 214.32 286.17 213.01 286.60 211.92 C 289.04 205.17 294.72 200.14 300.94 196.91 Z" fill="#1b1516" opacity="1.00" stroke="#1b1516" stroke-width="0.25"/>
<path d="M 116.08 204.48 C 116.40 201.46 117.95 198.08 121.11 197.20 C 126.67 195.31 132.67 198.78 135.71 203.40 C 139.35 208.53 138.51 215.16 138.59 221.09 C 135.31 217.22 132.61 212.78 128.53 209.62 C 124.99 206.70 120.61 205.02 116.08 204.48 Z" fill="#934625" opacity="1.00" stroke="#934625" stroke-width="0.25"/>
<path d="M 376.98 203.94 C 380.04 198.99 386.09 195.44 391.99 196.98 C 395.03 198.03 395.77 201.53 396.71 204.21 C 393.35 205.21 389.76 205.79 386.79 207.77 C 381.63 211.18 377.91 216.22 374.26 221.10 C 373.96 215.35 373.45 208.89 376.98 203.94 Z" fill="#934625" opacity="1.00" stroke="#934625" stroke-width="0.25"/>
<path d="M 176.60 209.57 C 182.10 203.98 190.47 202.68 197.97 202.94 C 206.46 203.19 212.40 209.83 219.17 214.00 C 222.23 216.04 226.31 218.33 225.88 222.62 C 220.54 221.83 215.80 225.23 210.49 224.84 L 211.15 224.05 C 214.21 223.07 217.50 222.11 219.65 219.55 C 220.14 218.57 219.93 217.76 219.01 217.12 C 216.25 214.33 212.76 212.47 209.51 210.33 C 209.80 214.29 209.58 218.69 206.66 221.71 C 201.56 227.88 190.74 227.29 186.26 220.69 C 183.64 217.46 183.46 213.11 184.21 209.18 C 180.57 210.89 176.89 212.76 174.25 215.89 C 176.17 218.78 178.38 221.55 181.54 223.18 C 180.94 223.42 180.39 223.75 179.90 224.17 C 177.67 222.55 175.38 221.01 173.17 219.35 C 172.06 218.05 170.30 218.22 168.79 217.94 C 170.70 214.56 173.93 212.29 176.60 209.57 Z" fill="#1b1516" opacity="1.00" stroke="#1b1516" stroke-width="0.25"/>
<path d="M 293.45 213.64 C 299.56 209.45 305.26 203.67 313.03 203.00 C 321.34 202.06 330.91 203.76 336.60 210.41 C 338.82 212.74 341.34 214.84 343.06 217.61 C 340.44 218.17 337.97 219.23 335.90 220.95 C 334.26 221.94 332.75 223.87 330.62 223.36 C 333.06 221.88 335.14 219.89 336.87 217.63 C 337.29 217.39 338.14 216.90 338.56 216.65 C 336.12 212.88 331.79 210.85 327.77 209.15 C 328.42 212.84 328.44 216.88 326.22 220.09 C 321.99 227.18 310.57 228.12 305.42 221.58 C 302.39 218.62 302.36 214.21 302.56 210.28 C 298.39 212.73 294.08 215.16 291.10 219.08 C 294.13 221.53 297.56 223.40 301.38 224.28 C 297.43 225.98 293.93 222.66 290.09 222.50 C 288.71 222.16 286.26 223.15 286.10 221.03 C 287.21 217.54 290.74 215.76 293.45 213.64 Z" fill="#1b1516" opacity="1.00" stroke="#1b1516" stroke-width="0.25"/>
<path d="M 115.50 206.19 C 119.64 209.02 124.50 211.26 127.52 215.39 C 130.50 221.25 129.69 228.30 127.22 234.20 C 124.60 241.09 126.69 249.08 132.30 253.85 C 133.86 253.60 135.43 253.36 137.00 253.11 C 136.11 249.94 133.18 248.06 131.81 245.18 C 130.67 240.38 131.33 234.61 135.42 231.36 C 137.24 231.28 138.48 233.01 139.29 234.42 C 139.83 238.93 139.18 243.54 140.13 248.03 C 140.59 250.33 141.03 252.76 140.00 255.00 C 141.15 256.84 142.12 258.81 142.29 261.02 C 143.22 267.77 144.81 274.43 145.41 281.22 C 138.98 281.23 133.12 277.29 130.13 271.72 C 125.74 263.74 125.49 254.35 121.87 246.08 C 118.59 238.44 116.78 230.27 115.63 222.07 C 115.40 216.78 115.62 211.48 115.50 206.19 Z" fill="#934625" opacity="1.00" stroke="#934625" stroke-width="0.25"/>
<path d="M 387.24 213.22 C 390.20 210.91 393.36 208.85 396.64 207.01 C 396.87 215.40 397.14 223.90 395.37 232.16 C 394.00 239.85 390.29 246.84 388.45 254.40 C 386.64 261.42 385.45 268.99 380.73 274.79 C 377.44 278.57 372.74 281.25 367.61 281.07 C 367.69 274.27 369.84 267.74 370.65 261.02 C 372.91 252.51 372.94 243.64 374.10 234.95 C 374.29 233.24 375.64 231.08 377.61 231.41 C 380.93 234.59 382.01 239.68 381.06 244.08 C 380.46 247.41 377.53 249.47 375.71 252.12 C 376.84 252.90 377.96 253.71 379.09 254.52 C 384.67 252.04 387.02 245.41 386.54 239.66 C 386.64 234.53 383.03 230.18 383.30 225.04 C 383.34 220.90 383.68 215.97 387.24 213.22 Z" fill="#934625" opacity="1.00" stroke="#934625" stroke-width="0.25"/>
<path d="M 309.41 208.61 C 310.99 207.67 314.15 207.28 313.96 209.95 C 314.35 212.46 311.03 213.18 309.68 211.47 C 309.55 210.52 309.46 209.57 309.41 208.61 Z" fill="#fcf9f3" opacity="1.00" stroke="#fcf9f3" stroke-width="0.25"/>
<path d="M 190.82 211.23 C 190.89 208.74 193.71 209.01 195.45 209.54 C 195.39 210.80 195.35 212.05 195.29 213.31 C 193.47 213.91 190.78 213.64 190.82 211.23 Z" fill="#fcf9f3" opacity="1.00" stroke="#fcf9f3" stroke-width="0.25"/>
<path d="M 174.25 215.89 C 176.89 212.76 180.57 210.89 184.21 209.18 C 183.46 213.11 183.64 217.46 186.26 220.69 C 190.74 227.29 201.56 227.88 206.66 221.71 C 209.58 218.69 209.80 214.29 209.51 210.33 C 212.76 212.47 216.25 214.33 219.01 217.12 C 219.93 217.76 220.14 218.57 219.65 219.55 C 217.50 222.11 214.21 223.07 211.15 224.05 C 202.31 227.37 192.51 227.33 183.60 224.31 C 183.57 224.70 183.51 225.46 183.49 225.85 L 183.34 224.54 C 178.03 225.78 175.41 219.26 170.30 219.46 C 171.25 219.37 172.21 219.34 173.17 219.35 C 175.38 221.01 177.67 222.55 179.90 224.17 C 180.39 223.75 180.94 223.42 181.54 223.18 C 178.38 221.55 176.17 218.78 174.25 215.89 Z" fill="#fcf9f3" opacity="1.00" stroke="#fcf9f3" stroke-width="0.25"/>
<path d="M 291.10 219.08 C 294.08 215.16 298.39 212.73 302.56 210.28 C 302.36 214.21 302.39 218.62 305.42 221.58 C 310.57 228.12 321.99 227.18 326.22 220.09 C 328.44 216.88 328.42 212.84 327.77 209.15 C 331.79 210.85 336.12 212.88 338.56 216.65 C 338.14 216.90 337.29 217.39 336.87 217.63 C 335.14 219.89 333.06 221.88 330.62 223.36 C 321.56 227.71 310.78 227.38 301.38 224.28 C 297.56 223.40 294.13 221.53 291.10 219.08 Z" fill="#fcf9f3" opacity="1.00" stroke="#fcf9f3" stroke-width="0.25"/>
<path d="M 219.32 266.31 C 221.38 263.73 223.06 260.65 226.01 258.96 C 225.32 262.68 221.91 265.00 220.70 268.50 C 218.87 273.45 216.87 279.34 219.63 284.34 C 221.63 288.88 225.96 292.09 230.74 293.21 C 232.26 293.81 234.51 293.67 235.06 295.57 C 230.90 295.54 225.90 296.73 222.58 293.50 C 219.80 290.83 216.28 288.39 215.51 284.35 C 213.36 278.18 215.74 271.43 219.32 266.31 Z" fill="#1b1516" opacity="1.00" stroke="#1b1516" stroke-width="0.25"/>
<path d="M 286.15 258.95 C 291.07 263.14 294.85 268.81 296.84 274.97 C 298.72 280.80 296.15 286.95 292.36 291.39 C 289.40 294.37 284.99 295.26 280.94 295.44 C 279.65 295.63 278.62 295.20 277.85 294.17 C 284.24 292.45 291.08 289.25 293.49 282.59 C 294.37 276.85 292.91 270.89 289.80 266.02 C 288.31 263.78 285.77 261.95 286.15 258.95 Z" fill="#1b1516" opacity="1.00" stroke="#1b1516" stroke-width="0.25"/>
<path d="M 225.25 283.00 C 229.33 280.61 234.25 282.16 238.45 283.43 C 244.17 285.24 249.00 289.38 254.99 290.33 C 262.54 290.93 268.00 284.74 274.84 282.76 C 278.34 281.30 282.19 281.49 285.77 282.55 C 285.56 283.60 285.14 284.65 283.95 284.88 C 279.21 286.79 274.25 288.26 269.85 290.93 C 265.59 293.29 261.09 296.14 256.00 295.64 C 249.01 295.25 243.30 290.60 236.89 288.32 C 232.91 286.80 228.31 286.25 225.25 283.00 Z" fill="#1b1516" opacity="1.00" stroke="#1b1516" stroke-width="0.25"/>
<path d="M 242.09 304.02 C 244.24 302.48 246.96 303.31 249.34 303.73 C 251.59 305.06 251.93 308.29 250.69 310.46 C 249.45 312.97 246.31 313.17 243.96 313.99 C 237.26 316.32 230.84 319.48 223.99 321.37 C 223.57 321.12 222.73 320.61 222.31 320.36 C 221.02 321.73 219.82 323.21 218.28 324.32 C 214.85 324.40 211.98 326.58 208.56 326.60 C 206.18 328.59 204.06 330.86 201.90 333.09 C 201.56 330.43 200.95 327.66 202.16 325.13 C 203.25 323.83 201.08 322.86 201.54 321.65 C 204.29 319.18 207.58 317.47 211.07 316.32 C 211.46 316.38 212.25 316.49 212.65 316.55 C 214.71 314.94 217.11 313.89 219.70 313.52 C 222.86 313.21 224.59 310.25 226.65 308.21 C 226.65 308.86 226.66 310.15 226.66 310.80 C 227.67 310.19 228.58 309.44 229.38 308.56 C 230.37 310.54 231.74 307.75 232.84 307.21 C 232.68 308.13 232.52 309.05 232.38 309.98 C 236.10 308.83 238.68 305.75 242.09 304.02 Z" fill="#1b1516" opacity="1.00" stroke="#1b1516" stroke-width="0.25"/>
<path d="M 264.69 304.61 C 266.18 303.47 268.06 302.16 270.02 302.97 C 274.61 303.69 277.99 308.10 282.84 307.52 C 284.92 308.65 287.19 309.66 288.60 311.66 C 289.54 308.05 291.82 312.31 292.54 313.85 C 292.68 313.42 292.97 312.55 293.11 312.12 C 293.49 312.52 294.25 313.31 294.63 313.70 C 296.18 313.35 297.70 312.85 299.29 312.68 C 304.17 314.35 307.12 318.86 311.15 321.83 C 312.68 325.61 310.57 329.78 310.51 333.71 C 310.31 333.72 309.91 333.73 309.71 333.74 C 308.93 330.66 306.41 328.55 304.37 326.28 C 304.13 326.58 303.63 327.18 303.38 327.47 C 300.63 324.56 296.36 324.75 293.03 322.91 C 290.72 321.94 288.70 320.27 286.29 319.59 C 282.16 319.71 278.52 317.11 274.36 317.46 C 273.97 317.18 273.20 316.62 272.81 316.34 C 272.43 316.39 271.66 316.48 271.27 316.53 C 271.10 315.94 270.74 314.77 270.57 314.18 C 270.32 314.57 269.83 315.34 269.59 315.72 C 268.22 315.31 266.86 314.89 265.50 314.49 C 264.72 311.33 262.45 307.66 264.69 304.61 Z" fill="#1b1516" opacity="1.00" stroke="#1b1516" stroke-width="0.25"/>
<path d="M 271.97 334.61 C 281.05 334.57 290.01 332.82 298.97 331.55 C 300.68 331.65 302.78 331.66 303.98 333.09 C 304.00 334.35 303.36 335.61 302.06 335.94 C 290.86 340.30 278.67 339.77 266.89 340.69 C 254.60 342.85 242.26 340.12 229.95 339.78 C 223.14 339.79 216.44 338.07 210.08 335.75 C 210.65 334.62 211.20 333.48 211.76 332.34 C 218.17 333.49 224.69 333.38 231.12 334.40 C 236.12 334.48 240.99 335.95 246.02 335.63 C 254.67 335.45 263.43 336.34 271.97 334.61 Z" fill="#1b1516" opacity="1.00" stroke="#1b1516" stroke-width="0.25"/>
<path d="M 230.57 355.93 C 236.78 358.29 243.24 360.45 250.00 359.88 C 260.16 359.20 270.66 361.36 280.44 357.69 C 278.51 361.92 273.15 362.89 268.96 363.16 C 260.26 363.66 251.49 364.03 242.81 363.29 C 238.37 361.99 232.26 360.86 230.57 355.93 Z" fill="#1b1516" opacity="1.00" stroke="#1b1516" stroke-width="0.25"/>
<path d="M 181.51 363.92 C 189.02 373.79 197.77 382.68 206.70 391.28 C 213.54 397.53 221.26 403.02 230.10 406.02 C 241.84 410.38 254.62 410.05 266.94 409.52 C 279.42 408.10 292.43 404.68 301.73 395.75 C 306.26 391.28 310.27 386.29 315.27 382.30 C 320.58 376.42 326.05 370.62 330.67 364.15 C 331.07 375.95 330.36 387.79 331.57 399.55 C 332.54 405.06 333.30 410.62 334.68 416.05 C 336.36 409.13 335.88 401.89 337.25 394.99 C 341.24 407.27 339.44 421.08 333.31 432.34 C 325.53 445.98 312.65 456.25 298.44 462.60 C 283.21 469.05 266.55 472.88 249.94 471.56 C 230.97 469.84 212.06 463.88 196.64 452.47 C 187.36 445.46 179.38 436.21 175.58 425.09 C 172.32 415.63 172.09 405.20 174.63 395.56 C 174.85 395.41 175.28 395.10 175.49 394.95 C 175.75 401.31 176.04 407.73 177.59 413.94 C 178.84 409.88 179.12 405.61 180.26 401.52 C 182.36 389.09 181.08 376.44 181.51 363.92 Z" fill="#934625" opacity="1.00" stroke="#934625" stroke-width="0.25"/>
</svg>